<svg width="65" height="65" viewBox="0 0 65 65" fill="none" xmlns="http://www.w3.org/2000/svg">
<path fill-rule="evenodd" clip-rule="evenodd" d="M38.6667 7.16667C38.6667 6.98986 38.5964 6.82029 38.4714 6.69526C38.3464 6.57024 38.1768 6.5 38 6.5H19.3333C17.3884 6.5 15.5231 7.27262 14.1479 8.64788C12.7726 10.0232 12 11.8884 12 13.8333V51.1667C12 53.1116 12.7726 54.9769 14.1479 56.3521C15.5231 57.7274 17.3884 58.5 19.3333 58.5H46C47.9449 58.5 49.8102 57.7274 51.1854 56.3521C52.5607 54.9769 53.3333 53.1116 53.3333 51.1667V24.892C53.3333 24.7152 53.2631 24.5456 53.1381 24.4206C53.013 24.2956 52.8435 24.2253 52.6667 24.2253H40.6667C40.1362 24.2253 39.6275 24.0146 39.2525 23.6395C38.8774 23.2645 38.6667 22.7558 38.6667 22.2253V7.16667ZM40.6667 33.1667C41.1971 33.1667 41.7058 33.3774 42.0809 33.7525C42.456 34.1275 42.6667 34.6362 42.6667 35.1667C42.6667 35.6971 42.456 36.2058 42.0809 36.5809C41.7058 36.956 41.1971 37.1667 40.6667 37.1667H24.6667C24.1362 37.1667 23.6275 36.956 23.2525 36.5809C22.8774 36.2058 22.6667 35.6971 22.6667 35.1667C22.6667 34.6362 22.8774 34.1275 23.2525 33.7525C23.6275 33.3774 24.1362 33.1667 24.6667 33.1667H40.6667ZM40.6667 43.8333C41.1971 43.8333 41.7058 44.044 42.0809 44.4191C42.456 44.7942 42.6667 45.3029 42.6667 45.8333C42.6667 46.3638 42.456 46.8725 42.0809 47.2475C41.7058 47.6226 41.1971 47.8333 40.6667 47.8333H24.6667C24.1362 47.8333 23.6275 47.6226 23.2525 47.2475C22.8774 46.8725 22.6667 46.3638 22.6667 45.8333C22.6667 45.3029 22.8774 44.7942 23.2525 44.4191C23.6275 44.044 24.1362 43.8333 24.6667 43.8333H40.6667Z" fill="#0042E6"/>
<path d="M42.6666 8.03063C42.6666 7.53997 43.1813 7.22797 43.5626 7.53463C43.8862 7.79597 44.1733 8.09997 44.424 8.44663L52.4586 19.6386C52.64 19.8946 52.4426 20.2253 52.128 20.2253H43.3333C43.1565 20.2253 42.9869 20.1551 42.8619 20.03C42.7369 19.905 42.6666 19.7354 42.6666 19.5586V8.03063Z" fill="#0042E6"/>
</svg>
