<svg width="65" height="64" viewBox="0 0 65 64" fill="none" xmlns="http://www.w3.org/2000/svg">
<path d="M29.2233 7.06522C28.541 6.38316 27.6158 6 26.6511 6C25.6864 6 24.7611 6.38316 24.0789 7.06522L3.53396 27.6065C3.19238 27.9481 3.00049 28.4113 3.00049 28.8944C3.00049 29.3775 3.19238 29.8408 3.53396 30.1823C3.87554 30.5239 4.33882 30.7158 4.82189 30.7158C5.30495 30.7158 5.76823 30.5239 6.10981 30.1823L6.64099 29.6475V48.9045C6.64099 50.3519 7.21595 51.74 8.23939 52.7634C9.26283 53.7868 10.6509 54.3618 12.0983 54.3618H14.0993C13.9777 53.7631 13.9168 53.1536 13.9174 52.5427V37.6807C13.0483 37.3731 12.2713 36.8505 11.6589 36.1614C11.0465 35.4724 10.6186 34.6395 10.4152 33.7403C10.2117 32.8412 10.2394 31.9052 10.4955 31.0196C10.7517 30.1341 11.228 29.3278 11.88 28.6761L31.3553 9.1972L29.2233 7.06522Z" fill="#0042E6"/>
<path d="M34.9934 10.7034C35.6757 10.0213 36.6009 9.63818 37.5656 9.63818C38.5304 9.63818 39.4556 10.0213 40.1378 10.7034L46.6611 17.2267V12.5225C46.6611 12.04 46.8528 11.5773 47.1939 11.2362C47.5351 10.8951 47.9978 10.7034 48.4802 10.7034H52.1184C52.6009 10.7034 53.0636 10.8951 53.4047 11.2362C53.7459 11.5773 53.9375 12.04 53.9375 12.5225V24.5031L60.6827 31.2447C61.0243 31.5862 61.2162 32.0495 61.2162 32.5326C61.2162 33.0157 61.0243 33.4789 60.6827 33.8205C60.3412 34.1621 59.8779 34.354 59.3948 34.354C58.9118 34.354 58.4485 34.1621 58.1069 33.8205L57.5757 33.2857V52.5427C57.5757 53.9901 57.0008 55.3781 55.9773 56.4016C54.9539 57.425 53.5658 58 52.1184 58H23.0128C21.5655 58 20.1774 57.425 19.1539 56.4016C18.1305 55.3781 17.5555 53.9901 17.5555 52.5427V33.2857L17.0244 33.8205C16.8552 33.9896 16.6544 34.1238 16.4335 34.2153C16.2125 34.3069 15.9756 34.354 15.7364 34.354C15.4972 34.354 15.2604 34.3069 15.0394 34.2153C14.8184 34.1238 14.6176 33.9896 14.4485 33.8205C14.2794 33.6514 14.1452 33.4506 14.0537 33.2296C13.9622 33.0086 13.915 32.7718 13.915 32.5326C13.915 32.2934 13.9622 32.0566 14.0537 31.8356C14.1452 31.6146 14.2794 31.4138 14.4485 31.2447L34.9934 10.7034Z" fill="#0042E6"/>
</svg>
