<svg width="64" height="64" viewBox="0 0 64 64" fill="none" xmlns="http://www.w3.org/2000/svg">
<path d="M34.2998 25.8594C34.6847 24.7043 36.3155 24.7043 36.7005 25.8594L38.9578 32.6389C39.4546 34.1292 40.2917 35.4833 41.4027 36.5938C42.5138 37.7044 43.8682 38.5408 45.3586 39.0369L52.1338 41.2944C53.2887 41.6794 53.2887 43.3104 52.1338 43.6954L45.3551 45.9529C43.8649 46.4498 42.511 47.287 41.4006 48.3982C40.2902 49.5093 39.4538 50.8639 38.9578 52.3545L36.7005 59.1305C36.6175 59.3834 36.4568 59.6036 36.2412 59.7598C36.0256 59.9159 35.7663 60 35.5001 60C35.234 60 34.9746 59.9159 34.7591 59.7598C34.5435 59.6036 34.3828 59.3834 34.2998 59.1305L32.0425 52.351C31.546 50.861 30.7094 49.5072 29.599 48.3967C28.4886 47.2862 27.135 46.4495 25.6452 45.9529L18.8664 43.6954C18.6135 43.6124 18.3933 43.4517 18.2372 43.2361C18.0811 43.0205 17.997 42.7611 17.997 42.4949C17.997 42.2287 18.0811 41.9693 18.2372 41.7538C18.3933 41.5382 18.6135 41.3774 18.8664 41.2944L25.6452 39.0369C27.135 38.5404 28.4886 37.7037 29.599 36.5932C30.7094 35.4827 31.546 34.1288 32.0425 32.6389L34.2998 25.8594ZM20.7807 8.01278C20.8309 7.86121 20.9276 7.72931 21.057 7.63582C21.1864 7.54234 21.342 7.49202 21.5016 7.49202C21.6613 7.49202 21.8169 7.54234 21.9463 7.63582C22.0757 7.72931 22.1724 7.86121 22.2225 8.01278L23.5769 12.0798C24.1823 13.8928 25.6032 15.3138 27.416 15.9193L31.4826 17.2738C31.6341 17.324 31.766 17.4207 31.8595 17.5501C31.9529 17.6796 32.0033 17.8352 32.0033 17.9948C32.0033 18.1545 31.9529 18.3101 31.8595 18.4395C31.766 18.569 31.6341 18.6656 31.4826 18.7158L27.416 20.0703C26.5214 20.3673 25.7085 20.869 25.042 21.5356C24.3755 22.2021 23.8738 23.0151 23.5769 23.9098L22.2225 27.9769C22.1724 28.1284 22.0757 28.2603 21.9463 28.3538C21.8169 28.4473 21.6613 28.4976 21.5016 28.4976C21.342 28.4976 21.1864 28.4473 21.057 28.3538C20.9276 28.2603 20.8309 28.1284 20.7807 27.9769L19.4264 23.9098C19.1294 23.0151 18.6278 22.2021 17.9613 21.5356C17.2948 20.869 16.4819 20.3673 15.5873 20.0703L11.5207 18.7158C11.3691 18.6656 11.2373 18.569 11.1438 18.4395C11.0503 18.3101 11 18.1545 11 17.9948C11 17.8352 11.0503 17.6796 11.1438 17.5501C11.2373 17.4207 11.3691 17.324 11.5207 17.2738L15.5873 15.9193C16.4819 15.6224 17.2948 15.1206 17.9613 14.4541C18.6278 13.7875 19.1294 12.9745 19.4264 12.0798L20.7807 8.01278ZM45.5195 4.34126C45.5541 4.2416 45.6188 4.15519 45.7048 4.09403C45.7907 4.03286 45.8935 4 45.999 4C46.1045 4 46.2073 4.03286 46.2932 4.09403C46.3792 4.15519 46.4439 4.2416 46.4784 4.34126L47.3814 7.05027C47.7838 8.26128 48.7322 9.20978 49.9431 9.61228L52.6518 10.5153C52.7514 10.5498 52.8378 10.6146 52.899 10.7005C52.9601 10.7865 52.993 10.8893 52.993 10.9948C52.993 11.1003 52.9601 11.2031 52.899 11.2891C52.8378 11.375 52.7514 11.4397 52.6518 11.4743L49.9431 12.3773C49.3469 12.5768 48.8052 12.9121 48.3606 13.3567C47.9161 13.8013 47.5808 14.343 47.3814 14.9393L46.4784 17.6483C46.4439 17.748 46.3792 17.8344 46.2932 17.8956C46.2073 17.9567 46.1045 17.9896 45.999 17.9896C45.8935 17.9896 45.7907 17.9567 45.7048 17.8956C45.6188 17.8344 45.5541 17.748 45.5195 17.6483L44.6166 14.9393C44.4172 14.343 44.0819 13.8013 43.6374 13.3567C43.1928 12.9121 42.6511 12.5768 42.0549 12.3773L39.3497 11.4743C39.2501 11.4397 39.1637 11.375 39.1025 11.2891C39.0414 11.2031 39.0085 11.1003 39.0085 10.9948C39.0085 10.8893 39.0414 10.7865 39.1025 10.7005C39.1637 10.6146 39.2501 10.5498 39.3497 10.5153L42.0584 9.61228C43.2693 9.20978 44.2177 8.26128 44.6201 7.05027L45.5195 4.34126Z" fill="#0042E6"/>
</svg>
