<svg width="150" height="150" viewBox="0 0 150 150" fill="none" xmlns="http://www.w3.org/2000/svg">
<path d="M21.4563 108.281L19.2438 123.75C19.107 124.71 19.1956 125.689 19.5025 126.609C19.8094 127.529 20.3262 128.365 21.0119 129.051C21.6977 129.736 22.5336 130.253 23.4536 130.56C24.3736 130.867 25.3524 130.955 26.3125 130.819L41.7813 128.606C44.125 128.275 50 112.5 50 112.5C50 112.5 52.95 115.031 54.1563 115.412C56.7313 116.225 59.2375 113.7 60.0813 111.137L62.5 100.062C62.5 100.062 66.1063 101.887 67.4125 102.156C69.075 102.5 70.6875 101.475 71.8313 100.325C72.5162 99.6383 73.0318 98.8016 73.3375 97.8812L75 87.5624C75 87.5624 79.2188 88.7312 80.6625 88.8999C82.3063 89.0874 83.9063 88.2499 85.0813 87.0687L92.1938 79.9624C98.2143 81.9148 104.657 82.1671 110.812 80.6916C116.966 79.216 122.594 76.0699 127.075 71.5999C133.511 65.1478 137.125 56.4067 137.125 47.2937C137.125 38.1807 133.511 29.4396 127.075 22.9874C120.623 16.5519 111.882 12.9379 102.769 12.9379C93.6558 12.9379 84.9147 16.5519 78.4625 22.9874C73.9925 27.4682 70.8464 33.0961 69.3709 39.2508C67.8953 45.4056 68.1476 51.8482 70.1 57.8687L23.2188 104.744C22.2641 105.701 21.6457 106.942 21.4563 108.281ZM115.65 34.4124C119.058 37.8331 120.972 42.465 120.972 47.2937C120.972 52.1224 119.058 56.7543 115.65 60.1749L89.8875 34.4124C93.3081 31.0042 97.9401 29.0905 102.769 29.0905C107.597 29.0905 112.229 31.0042 115.65 34.4124Z" fill="#0042E6"/>
</svg>
