<svg width="24" height="24" viewBox="0 0 24 24" fill="none" xmlns="http://www.w3.org/2000/svg">
<path d="M21.5461 7.93967C21.2648 7.65847 20.8833 7.50049 20.4856 7.50049C20.0878 7.50049 19.7063 7.65847 19.4251 7.93967L12.0001 15.3647L4.57505 7.93967C4.29215 7.66643 3.91324 7.51524 3.51995 7.51866C3.12665 7.52208 2.75043 7.67983 2.47232 7.95794C2.19421 8.23605 2.03646 8.61227 2.03304 9.00557C2.02962 9.39886 2.18081 9.77777 2.45405 10.0607L10.9396 18.5462C11.2208 18.8274 11.6023 18.9854 12 18.9854C12.3978 18.9854 12.7793 18.8274 13.0605 18.5462L21.5461 10.0607C21.8273 9.77938 21.9852 9.39792 21.9852 9.00017C21.9852 8.60243 21.8273 8.22096 21.5461 7.93967Z" fill="#0042E6"/>
</svg>
