<svg width="24" height="24" viewBox="0 0 24 24" fill="none" xmlns="http://www.w3.org/2000/svg">
<path d="M2.45395 16.0603C2.73524 16.3415 3.1167 16.4995 3.51445 16.4995C3.9122 16.4995 4.29366 16.3415 4.57495 16.0603L12 8.63533L19.425 16.0603C19.7079 16.3336 20.0868 16.4848 20.4801 16.4813C20.8733 16.4779 21.2496 16.3202 21.5277 16.0421C21.8058 15.7639 21.9635 15.3877 21.967 14.9944C21.9704 14.6011 21.8192 14.2222 21.5459 13.9393L13.0604 5.45383C12.7792 5.17262 12.3977 5.01465 12 5.01465C11.6022 5.01465 11.2207 5.17262 10.9395 5.45383L2.45395 13.9393C2.17274 14.2206 2.01477 14.6021 2.01477 14.9998C2.01477 15.3976 2.17274 15.779 2.45395 16.0603Z" fill="#0042E6"/>
</svg>
