<svg width="32" height="32" viewBox="0 0 32 32" fill="none" xmlns="http://www.w3.org/2000/svg">
<path d="M28.1417 10.5859C27.7743 10.211 27.2761 10.0003 26.7566 10.0003C26.2371 10.0003 25.7388 10.211 25.3714 10.5859L15.6735 20.4859L5.9755 10.5859C5.606 10.2216 5.1111 10.02 4.59741 10.0246C4.08372 10.0291 3.59233 10.2394 3.22908 10.6103C2.86583 10.9811 2.65979 11.4827 2.65533 12.0071C2.65086 12.5315 2.84834 13.0367 3.20522 13.4139L14.2883 24.7279C14.6557 25.1028 15.154 25.3135 15.6735 25.3135C16.193 25.3135 16.6912 25.1028 17.0586 24.7279L28.1417 13.4139C28.509 13.0388 28.7153 12.5302 28.7153 11.9999C28.7153 11.4696 28.509 10.961 28.1417 10.5859Z" fill="#999999"/>
</svg>
