<svg width="64" height="64" viewBox="0 0 64 64" fill="none" xmlns="http://www.w3.org/2000/svg">
<path d="M12.5 12.2857C12.5 10.4683 11.0477 9 9.25 9C7.45234 9 6 10.4683 6 12.2857V46.7857C6 51.3241 9.63594 55 14.125 55H54.75C56.5477 55 58 53.5317 58 51.7143C58 49.8969 56.5477 48.4286 54.75 48.4286H14.125C13.2312 48.4286 12.5 47.6893 12.5 46.7857V12.2857ZM53.7953 21.1777C55.0648 19.8942 55.0648 17.8098 53.7953 16.5263C52.5258 15.2429 50.4641 15.2429 49.1945 16.5263L38.5 27.3487L32.6703 21.4652C31.4008 20.1817 29.3391 20.1817 28.0695 21.4652L18.3195 31.3223C17.05 32.6058 17.05 34.6902 18.3195 35.9737C19.5891 37.2571 21.6508 37.2571 22.9203 35.9737L30.375 28.4371L36.2047 34.3308C37.4742 35.6143 39.5359 35.6143 40.8055 34.3308L53.8055 21.1879L53.7953 21.1777Z" fill="#0042E6"/>
</svg>
