<svg width="64" height="64" viewBox="0 0 64 64" fill="none" xmlns="http://www.w3.org/2000/svg">
<path d="M6.8125 9C5.27093 9 3.7925 9.6058 2.70244 10.6841C1.61239 11.7625 1 13.225 1 14.75V41.5833C1 43.1083 1.61239 44.5709 2.70244 45.6492C3.7925 46.7275 5.27093 47.3333 6.8125 47.3333H49.4375C50.9791 47.3333 52.4575 46.7275 53.5476 45.6492C54.6376 44.5709 55.25 43.1083 55.25 41.5833V14.75C55.25 13.225 54.6376 11.7625 53.5476 10.6841C52.4575 9.6058 50.9791 9 49.4375 9H6.8125ZM16.5 12.8333V16.6667C16.5 18.7 15.6835 20.65 14.2301 22.0878C12.7767 23.5256 10.8054 24.3333 8.75 24.3333H4.875V20.5H8.75C9.77771 20.5 10.7633 20.0961 11.49 19.3772C12.2167 18.6584 12.625 17.6833 12.625 16.6667V12.8333H16.5ZM28.125 34.875C26.3265 34.875 24.6017 34.1682 23.3299 32.9102C22.0582 31.6521 21.3438 29.9458 21.3438 28.1667C21.3438 26.3875 22.0582 24.6812 23.3299 23.4232C24.6017 22.1651 26.3265 21.4583 28.125 21.4583C29.9235 21.4583 31.6483 22.1651 32.9201 23.4232C34.1918 24.6812 34.9062 26.3875 34.9062 28.1667C34.9062 29.9458 34.1918 31.6521 32.9201 32.9102C31.6483 34.1682 29.9235 34.875 28.125 34.875ZM4.875 35.8333V32H8.75C10.8054 32 12.7767 32.8077 14.2301 34.2455C15.6835 35.6833 16.5 37.6333 16.5 39.6667V43.5H12.625V39.6667C12.625 38.65 12.2167 37.675 11.49 36.9561C10.7633 36.2372 9.77771 35.8333 8.75 35.8333H4.875ZM47.5 35.8333C46.4723 35.8333 45.4867 36.2372 44.76 36.9561C44.0333 37.675 43.625 38.65 43.625 39.6667V43.5H39.75V39.6667C39.75 37.6333 40.5665 35.6833 42.0199 34.2455C43.4733 32.8077 45.4446 32 47.5 32H51.375V35.8333H47.5ZM47.5 20.5H51.375V24.3333H47.5C45.4446 24.3333 43.4733 23.5256 42.0199 22.0878C40.5665 20.65 39.75 18.7 39.75 16.6667V12.8333H43.625V16.6667C43.625 17.6833 44.0333 18.6584 44.76 19.3772C45.4867 20.0961 46.4723 20.5 47.5 20.5ZM59.125 41.5833C59.125 44.125 58.1044 46.5625 56.2876 48.3598C54.4708 50.157 52.0068 51.1667 49.4375 51.1667H9.07938C9.48021 52.2882 10.2228 53.2592 11.2048 53.9457C12.1869 54.6323 13.36 55.0006 14.5625 55H49.4375C53.0345 55 56.4842 53.5865 59.0276 51.0703C61.5711 48.5542 63 45.1417 63 41.5833V22.4167C63.0006 21.2271 62.6283 20.0666 61.9343 19.0951C61.2403 18.1236 60.2587 17.389 59.125 16.9925V41.5833Z" fill="#0042E6"/>
</svg>
