<svg width="64" height="64" viewBox="0 0 64 64" fill="none" xmlns="http://www.w3.org/2000/svg">
<path d="M14.2826 12C12.0859 12 9.97922 12.878 8.42593 14.4408C6.87263 16.0036 6 18.1232 6 20.3333V22H59V20.3333C59 18.1232 58.1274 16.0036 56.5741 14.4408C55.0208 12.878 52.9141 12 50.7174 12H14.2826ZM6 43.6667V25.3333H59V43.6667C59 45.8768 58.1274 47.9964 56.5741 49.5592C55.0208 51.122 52.9141 52 50.7174 52H14.2848C12.0881 52 9.98143 51.122 8.42814 49.5592C6.87484 47.9964 6.00221 45.8768 6.00221 43.6667M41.8826 37.5556C41.4432 37.5556 41.0219 37.7312 40.7112 38.0437C40.4006 38.3563 40.226 38.7802 40.226 39.2222C40.226 39.6643 40.4006 40.0882 40.7112 40.4007C41.0219 40.7133 41.4432 40.8889 41.8826 40.8889H49.613C50.0524 40.8889 50.4737 40.7133 50.7844 40.4007C51.095 40.0882 51.2695 39.6643 51.2695 39.2222C51.2695 38.7802 51.095 38.3563 50.7844 38.0437C50.4737 37.7312 50.0524 37.5556 49.613 37.5556H41.8826Z" fill="#0042E6"/>
</svg>
