<svg width="32" height="33" viewBox="0 0 32 33" fill="none" xmlns="http://www.w3.org/2000/svg">
<path d="M24 17.8307H17.3334V24.4974C17.3334 24.851 17.1929 25.1902 16.9428 25.4402C16.6928 25.6903 16.3536 25.8307 16 25.8307C15.6464 25.8307 15.3073 25.6903 15.0572 25.4402C14.8072 25.1902 14.6667 24.851 14.6667 24.4974V17.8307H8.00002C7.6464 17.8307 7.30726 17.6903 7.05721 17.4402C6.80716 17.1902 6.66669 16.851 6.66669 16.4974C6.66669 16.1438 6.80716 15.8046 7.05721 15.5546C7.30726 15.3045 7.6464 15.1641 8.00002 15.1641H14.6667V8.4974C14.6667 8.14377 14.8072 7.80463 15.0572 7.55459C15.3073 7.30454 15.6464 7.16406 16 7.16406C16.3536 7.16406 16.6928 7.30454 16.9428 7.55459C17.1929 7.80463 17.3334 8.14377 17.3334 8.4974V15.1641H24C24.3536 15.1641 24.6928 15.3045 24.9428 15.5546C25.1929 15.8046 25.3334 16.1438 25.3334 16.4974C25.3334 16.851 25.1929 17.1902 24.9428 17.4402C24.6928 17.6903 24.3536 17.8307 24 17.8307Z" fill="#020103"/>
</svg>
