<svg width="64" height="64" viewBox="0 0 64 64" fill="none" xmlns="http://www.w3.org/2000/svg">
<path d="M48.875 60.0001C46.435 60.0001 43.0075 59.1176 37.875 56.2501C31.6337 52.7501 26.8062 49.5188 20.5987 43.3276C14.6137 37.3463 11.7012 33.4738 7.62499 26.0563C3.01999 17.6813 3.80499 13.2913 4.68249 11.4151C5.72749 9.17256 7.26999 7.83131 9.26374 6.50006C10.3962 5.75811 11.5946 5.12208 12.8437 4.60006C12.9687 4.54631 13.085 4.49506 13.1887 4.44881C13.8075 4.17006 14.745 3.74881 15.9325 4.19881C16.725 4.49631 17.4325 5.10506 18.54 6.19881C20.8112 8.43881 23.915 13.4276 25.06 15.8776C25.8287 17.5288 26.3375 18.6188 26.3387 19.8413C26.3387 21.2726 25.6187 22.3763 24.745 23.5676C24.5812 23.7913 24.4187 24.0051 24.2612 24.2126C23.31 25.4626 23.1012 25.8238 23.2387 26.4688C23.5175 27.7651 25.5962 31.6238 29.0125 35.0326C32.4287 38.4413 36.1762 40.3888 37.4775 40.6663C38.15 40.8101 38.5187 40.5926 39.8087 39.6076C39.9937 39.4663 40.1837 39.3201 40.3825 39.1738C41.715 38.1826 42.7675 37.4813 44.165 37.4813H44.1725C45.3887 37.4813 46.43 38.0088 48.155 38.8788C50.405 40.0138 55.5437 43.0776 57.7975 45.3513C58.8937 46.4563 59.505 47.1613 59.8037 47.9526C60.2537 49.1438 59.83 50.0776 59.5537 50.7026C59.5075 50.8063 59.4562 50.9201 59.4025 51.0463C58.8763 52.2932 58.2366 53.4891 57.4912 54.6188C56.1625 56.6063 54.8162 58.1451 52.5687 59.1913C51.4147 59.7373 50.1516 60.0138 48.875 60.0001Z" fill="#0042E6"/>
</svg>
