<svg width="114" height="56" viewBox="0 0 114 56" fill="none" xmlns="http://www.w3.org/2000/svg">
<path d="M17.9358 0.5C18.3786 0.528392 23.2356 4.98843 23.9003 5.56567L36.1292 16.1769C36.2086 18.5094 36.1717 20.999 36.1798 23.3494L36.1768 38.1743L36.1838 48.7248C36.1901 50.8865 36.2469 53.2803 36.1536 55.424C34.2229 55.3389 31.7899 55.3761 29.8335 55.3703L18.6616 55.3469L7.07519 55.3603C5.31071 55.3663 1.69601 55.3396 0.00450394 55.5L0.0134582 28.7142C0.018793 24.6333 -0.0341721 20.4476 0.0395622 16.3751C0.7931 15.4447 4.03741 12.7593 5.10913 11.833L11.5697 6.1683C13.4626 4.52494 16.2041 2.23061 17.9358 0.5ZM6.70537 48.0135L7.7125 48.0324L22.5735 48.0227C23.7496 48.0208 28.7212 47.9373 29.5948 48.0823C29.5681 47.3749 29.5765 46.6442 29.5733 45.9352C29.5312 36.9696 29.6737 27.9901 29.5794 19.0261C28.3998 17.9099 26.86 16.6815 25.5941 15.6211L18.1529 9.36855C14.4658 12.6513 10.5613 15.8232 6.82731 19.0753L6.73395 38.2302L6.74081 44.3595C6.74367 45.4653 6.79206 46.9306 6.70537 48.0135Z" fill="#0042E6"/>
<path d="M7.71251 48.0325L22.5735 48.0227C23.7496 48.0208 28.7213 47.9373 29.5948 48.0823C28.9162 48.6428 22.889 48.1957 21.5046 48.2523C20.0141 48.196 18.1765 48.3333 16.7313 48.2231C14.8402 48.0787 9.24321 48.6317 7.71251 48.0325Z" fill="#0042E6"/>
<path d="M43.901 10.8933L48.7962 10.92C51.2668 10.9245 54.1394 10.7064 56.3943 11.6884C57.678 12.2428 59.0596 13.4866 59.4484 14.8626C60.5544 18.7756 59.4023 21.7574 55.5464 23.0675C56.6526 25.2543 58.7503 28.4967 60.0554 30.675C59.0235 30.691 57.9234 30.6677 56.8862 30.6628C56.5867 30.6707 55.5045 30.7126 55.4129 30.6011C54.3152 29.264 51.9744 24.8832 51.263 23.6328C50.3366 23.6739 49.2651 23.6521 48.3277 23.6553L48.329 30.7895C46.825 30.8393 45.3827 30.8119 43.8796 30.8034C43.9905 26.1476 43.7977 21.2892 43.8726 16.6174C43.9023 14.7685 43.7945 12.7211 43.901 10.8933ZM48.2549 20.029C50.2951 20.0696 53.1151 20.4295 54.6929 19.2528C56.3941 17.2351 55.3161 14.8135 52.7015 14.6241C51.2403 14.5183 49.7201 14.6664 48.254 14.6296C48.3166 16.3587 48.2652 18.2856 48.2549 20.029Z" fill="#0042E6"/>
<path d="M54.8059 35.6542C55.3532 35.6592 55.845 35.6673 56.392 35.6295C57.2479 37.051 58.5909 38.7612 59.563 40.1257L65.7803 48.7084L65.773 39.8361C65.7749 38.5763 65.7235 36.9946 65.814 35.777C67.1991 35.7476 68.5867 35.7828 69.9721 35.807C70.1397 39.8288 70.0822 43.7668 69.8816 47.7822C69.7568 50.2811 70.0121 52.8311 69.9593 55.3501L68.3724 55.3855C67.496 55.3406 66.5591 55.3703 65.6368 55.3248C62.3549 51.5063 59.7405 46.6553 56.5195 42.8745C56.6134 46.8774 56.541 51.238 56.5305 55.2539L52.4155 55.2597C52.3534 48.8647 52.3145 42.0693 52.4075 35.6837L54.8059 35.6542Z" fill="#0042E6"/>
<path d="M90.1066 10.6551C90.5885 10.6394 90.6862 10.6094 91.1896 10.6569C91.3489 10.898 92.3657 13.6582 92.5244 14.0958C94.1485 18.5697 95.784 23.0505 97.509 27.4881C97.8068 28.2543 98.4428 30.1008 98.8351 30.7075L94.0331 30.7292C93.5781 29.7401 92.9209 27.6859 92.5161 26.5769L87.6088 26.5747C86.6461 26.5741 85.6891 26.5867 84.7286 26.5177C84.0835 27.7908 83.6165 29.3344 83.044 30.687C81.5479 30.7083 80.0588 30.7419 78.5633 30.685C78.9246 29.4964 79.575 27.9734 80.0182 26.7548L83.976 16.188C84.4678 14.8968 85.7348 11.9094 85.9308 10.7122C87.319 10.674 88.7057 10.7028 90.1066 10.6551ZM85.9146 22.8946C86.5969 22.7212 87.8121 22.74 88.5418 22.7475C89.5358 22.7652 90.4399 22.9312 91.3952 22.9175C90.8794 21.6799 88.9802 15.9497 88.5247 15.3415C87.7574 17.6574 86.4361 20.5549 85.9146 22.8946Z" fill="#0042E6"/>
<path d="M63.1332 10.8995C67.5964 10.8418 72.0692 10.9245 76.523 10.8748C76.3532 12.0181 76.5799 13.2912 76.5197 14.5598C73.5719 14.6328 70.4971 14.6738 67.5478 14.6317L67.56 18.8151C70.0665 18.7673 72.6955 18.808 75.2091 18.8461C75.215 20.0655 75.2411 21.4251 75.4101 22.6311C73.8992 22.4217 69.2469 22.5245 67.5249 22.5335C67.5773 23.9878 67.5693 25.4228 67.5668 26.8776C70.3727 26.8544 73.6849 26.9084 76.5134 26.9676C76.5113 27.8365 76.4376 29.9524 76.5077 30.7235C75.4985 30.9356 63.8035 31.0845 63.1409 30.5872C63.013 29.8524 63.1159 27.4764 63.1342 26.6179C63.0252 24.1013 63.2413 21.2036 63.05 18.7154C62.95 17.9167 62.8898 11.2298 63.1332 10.8995Z" fill="#0042E6"/>
<path d="M63.1342 26.6179C63.4743 27.5073 63.3419 29.2469 63.3196 30.2591C64.3738 30.5458 65.3741 30.4309 66.4585 30.4749C69.1709 30.5853 71.8754 30.3108 74.5781 30.6331C75.188 30.7056 75.924 30.628 76.5077 30.7235C75.4985 30.9356 63.8035 31.0845 63.1409 30.5872C63.013 29.8524 63.1159 27.4764 63.1342 26.6179Z" fill="#0042E6"/>
<path d="M63.05 18.7154C62.95 17.9167 62.8898 11.2298 63.1332 10.8995C63.3247 12.034 63.3394 17.6446 63.05 18.7154Z" fill="#0042E6"/>
<path d="M105.518 10.8589L105.687 10.9758C105.798 11.4675 105.763 14.944 105.755 15.6863C105.712 19.3254 105.837 23.0858 105.743 26.71C108.304 26.6175 111.408 26.6935 114 26.6882C113.912 27.8514 113.972 29.5483 113.995 30.7233C112.613 30.7013 111.191 30.7181 109.805 30.7182L101.253 30.7192C101.114 29.1809 101.206 25.9982 101.216 24.3947L101.247 14.1892C101.251 13.7032 101.043 11.2445 101.129 11.067C101.892 10.7406 104.457 10.8974 105.518 10.8589Z" fill="#0042E6"/>
<path d="M45.0651 35.6858C46.076 35.7063 47.682 35.4866 48.3858 35.6207C48.342 37.3397 48.5306 40.3481 48.2707 41.8548C48.1538 46.1994 48.2488 50.9794 48.2519 55.3565C46.8551 55.3665 45.4361 55.3891 44.0414 55.359C43.6805 54.7272 43.8663 37.523 43.8589 35.5914C44.2761 35.6427 44.6471 35.6621 45.0651 35.6858Z" fill="#0042E6"/>
<path d="M45.0651 35.6858C46.0761 35.7063 47.682 35.4866 48.3858 35.6207C48.342 37.3397 48.5306 40.3481 48.2708 41.8548C47.9501 40.6516 48.2576 37.4797 48.0486 35.9112C47.8564 35.6562 45.6641 35.9996 45.1509 35.7087C45.1223 35.701 45.0937 35.6933 45.0651 35.6858Z" fill="#0042E6"/>
</svg>
