<svg width="64" height="64" viewBox="0 0 64 64" fill="none" xmlns="http://www.w3.org/2000/svg">
<path d="M14.7333 43.1334L24.2 33.6668C24.7333 33.1334 25.3556 32.8774 26.0667 32.8988C26.7778 32.9201 27.4 33.1983 27.9333 33.7334C28.4222 34.2668 28.6667 34.889 28.6667 35.6001C28.6667 36.3112 28.4222 36.9334 27.9333 37.4668L16.6667 48.8001C16.1333 49.3334 15.5111 49.6001 14.8 49.6001C14.0889 49.6001 13.4667 49.3334 12.9333 48.8001L7.20001 43.0668C6.71112 42.5779 6.46667 41.9557 6.46667 41.2001C6.46667 40.4446 6.71112 39.8223 7.20001 39.3334C7.6889 38.8446 8.31112 38.6001 9.06668 38.6001C9.82223 38.6001 10.4445 38.8446 10.9333 39.3334L14.7333 43.1334ZM14.7333 21.8001L24.2 12.3334C24.7333 11.8001 25.3556 11.5441 26.0667 11.5654C26.7778 11.5868 27.4 11.865 27.9333 12.4001C28.4222 12.9334 28.6667 13.5557 28.6667 14.2668C28.6667 14.9779 28.4222 15.6001 27.9333 16.1334L16.6667 27.4668C16.1333 28.0001 15.5111 28.2668 14.8 28.2668C14.0889 28.2668 13.4667 28.0001 12.9333 27.4668L7.20001 21.7334C6.71112 21.2446 6.46667 20.6223 6.46667 19.8668C6.46667 19.1112 6.71112 18.489 7.20001 18.0001C7.6889 17.5112 8.31112 17.2668 9.06668 17.2668C9.82223 17.2668 10.4445 17.5112 10.9333 18.0001L14.7333 21.8001ZM37.3333 45.3334C36.5778 45.3334 35.9449 45.0774 35.4347 44.5654C34.9245 44.0534 34.6685 43.4206 34.6667 42.6668C34.6649 41.913 34.9209 41.2801 35.4347 40.7681C35.9485 40.2561 36.5813 40.0001 37.3333 40.0001H56C56.7556 40.0001 57.3893 40.2561 57.9013 40.7681C58.4133 41.2801 58.6685 41.913 58.6667 42.6668C58.6649 43.4206 58.4089 44.0543 57.8987 44.5681C57.3885 45.0819 56.7556 45.337 56 45.3334H37.3333ZM37.3333 24.0001C36.5778 24.0001 35.9449 23.7441 35.4347 23.2321C34.9245 22.7201 34.6685 22.0872 34.6667 21.3334C34.6649 20.5797 34.9209 19.9468 35.4347 19.4348C35.9485 18.9228 36.5813 18.6668 37.3333 18.6668H56C56.7556 18.6668 57.3893 18.9228 57.9013 19.4348C58.4133 19.9468 58.6685 20.5797 58.6667 21.3334C58.6649 22.0872 58.4089 22.721 57.8987 23.2348C57.3885 23.7486 56.7556 24.0037 56 24.0001H37.3333Z" fill="#0042E6"/>
</svg>
