<svg width="64" height="64" viewBox="0 0 64 64" fill="none" xmlns="http://www.w3.org/2000/svg">
<path d="M32 5.33325C46.728 5.33325 58.6666 17.2719 58.6666 31.9999C58.6666 46.7279 46.728 58.6666 32 58.6666C17.272 58.6666 5.33331 46.7279 5.33331 31.9999C5.33331 17.2719 17.272 5.33325 32 5.33325ZM32 15.9999C31.2927 15.9999 30.6145 16.2809 30.1144 16.781C29.6143 17.2811 29.3333 17.9593 29.3333 18.6666V31.9999C29.3335 32.7071 29.6145 33.3853 30.1146 33.8852L38.1146 41.8852C38.6176 42.371 39.2912 42.6398 39.9904 42.6337C40.6896 42.6276 41.3584 42.3472 41.8528 41.8528C42.3472 41.3583 42.6277 40.6895 42.6338 39.9903C42.6398 39.2911 42.3711 38.6175 41.8853 38.1146L34.6666 30.8959V18.6666C34.6666 17.9593 34.3857 17.2811 33.8856 16.781C33.3855 16.2809 32.7072 15.9999 32 15.9999Z" fill="#0042E6"/>
</svg>
