<svg width="32" height="32" viewBox="0 0 32 32" fill="none" xmlns="http://www.w3.org/2000/svg">
<path d="M14 2.66665C15.668 2.66665 17.2533 3.02665 18.6787 3.67465C17.9909 4.28458 17.5341 5.11281 17.3853 6.01998C15.6709 5.29249 13.7677 5.13664 11.9577 5.57551C10.1478 6.01438 8.52732 7.02463 7.33648 8.45658C6.14564 9.88853 5.44775 11.666 5.34622 13.5256C5.24469 15.3853 5.74491 17.2282 6.77277 18.7812C7.80064 20.3343 9.30146 21.515 11.0529 22.1483C12.8043 22.7816 14.7132 22.8339 16.4966 22.2974C18.2801 21.7609 19.8433 20.6641 20.9546 19.1696C22.0659 17.6751 22.6663 15.8624 22.6667 14L22.66 13.6413C23.3747 14.2813 24.312 14.6613 25.3147 14.6666C25.1821 16.9806 24.3399 19.1976 22.9027 21.016L27.772 25.8853C28.0149 26.1368 28.1493 26.4736 28.1462 26.8232C28.1432 27.1728 28.003 27.5072 27.7558 27.7544C27.5085 28.0016 27.1741 28.1418 26.8245 28.1449C26.4749 28.1479 26.1381 28.0135 25.8867 27.7706L21.0173 22.9013C19.598 24.0199 17.9317 24.7828 16.1575 25.1265C14.3833 25.4702 12.5527 25.3846 10.8183 24.8769C9.08396 24.3692 7.49614 23.4541 6.18734 22.208C4.87854 20.9618 3.88671 19.4208 3.29459 17.7134C2.70247 16.006 2.52723 14.1818 2.78349 12.3929C3.03975 10.604 3.72009 8.90229 4.76773 7.4298C5.81538 5.9573 7.19996 4.75669 8.80597 3.92811C10.412 3.09953 12.1928 2.66701 14 2.66665ZM14 6.66665C15.236 6.66665 16.4013 6.97331 17.424 7.51331C17.57 8.18719 17.8877 8.81188 18.3463 9.32677C18.8049 9.84167 19.3888 10.2293 20.0413 10.452L20.5053 10.6106C21.2451 12.0301 21.5002 13.6526 21.2316 15.2306C20.963 16.8086 20.1854 18.2554 19.0176 19.3501C17.8498 20.4448 16.3559 21.1274 14.7639 21.2937C13.1719 21.4599 11.5692 21.1007 10.2004 20.2708C8.83162 19.441 7.77195 18.1861 7.18312 16.6976C6.59429 15.2092 6.50863 13.569 6.93921 12.0273C7.3698 10.4856 8.29298 9.12716 9.56787 8.15925C10.8428 7.19134 12.3993 6.66714 14 6.66665ZM25.3333 1.33331C25.5828 1.33331 25.8272 1.40328 26.0389 1.53527C26.2505 1.66727 26.4209 1.85598 26.5307 2.07998L26.5947 2.23598L26.768 2.73998C26.9509 3.27622 27.2457 3.76749 27.6328 4.18124C28.0199 4.59499 28.4904 4.92178 29.0133 5.13998L29.26 5.23331L29.764 5.40531C30.0136 5.49046 30.2323 5.64771 30.3925 5.85718C30.5527 6.06664 30.6473 6.31891 30.6641 6.58208C30.6809 6.84526 30.6194 7.10751 30.4871 7.33569C30.3549 7.56387 30.158 7.74771 29.9213 7.86398L29.764 7.92798L29.26 8.10131C28.7238 8.28425 28.2325 8.57902 27.8187 8.9661C27.405 9.35319 27.0782 9.82376 26.86 10.3466L26.7667 10.5933L26.5947 11.0973C26.5094 11.3468 26.352 11.5655 26.1425 11.7255C25.9329 11.8856 25.6806 11.98 25.4174 11.9967C25.1543 12.0134 24.8921 11.9517 24.664 11.8193C24.4359 11.687 24.2521 11.49 24.136 11.2533L24.072 11.0973L23.8987 10.5933C23.7157 10.0571 23.421 9.56581 23.0339 9.15206C22.6468 8.73831 22.1762 8.41151 21.6533 8.19331L21.4067 8.09998L20.9027 7.92798C20.6531 7.84283 20.4343 7.68558 20.2741 7.47612C20.1139 7.26665 20.0194 7.01438 20.0026 6.75121C19.9857 6.48804 20.0473 6.22578 20.1795 5.9976C20.3117 5.76943 20.5086 5.58558 20.7453 5.46931L20.9027 5.40531L21.4067 5.23198C21.9429 5.04904 22.4342 4.75427 22.8479 4.36719C23.2617 3.9801 23.5885 3.50954 23.8067 2.98665L23.9 2.73998L24.072 2.23598C24.1618 1.97276 24.3317 1.74423 24.5579 1.58237C24.7841 1.42051 25.0552 1.33342 25.3333 1.33331Z" fill="#0042E6"/>
</svg>
