<svg width="64" height="64" viewBox="0 0 64 64" fill="none" xmlns="http://www.w3.org/2000/svg">
<path fill-rule="evenodd" clip-rule="evenodd" d="M44.7334 8.0693C45.3966 7.91537 46.0935 8.02094 46.6814 8.36436C47.2693 8.70779 47.7035 9.26305 47.8951 9.91635C48.0868 10.5697 48.0213 11.2715 47.712 11.8781C47.4028 12.4846 46.8733 12.9499 46.232 13.1786L45.9334 13.264L40 14.6346V26.6666H50.6667C52.0123 26.6662 53.3082 27.1744 54.2948 28.0893C55.2815 29.0042 55.8858 30.2582 55.9867 31.6L56 32V50.6666C56.0005 52.0122 55.4923 53.3081 54.5774 54.2948C53.6625 55.2814 52.4085 55.8857 51.0667 55.9866L50.6667 56H16C14.6545 56.0004 13.3585 55.4922 12.3719 54.5773C11.3853 53.6624 10.781 52.4084 10.68 51.0666L10.6667 50.6666V21.3333C10.0379 21.3342 9.429 21.1128 8.94756 20.7083C8.46612 20.3038 8.14312 19.7421 8.03561 19.1226C7.9281 18.503 8.04298 17.8654 8.35998 17.3223C8.67698 16.7792 9.1757 16.3657 9.76805 16.1546L10.0667 16.0693L44.7334 8.0693ZM40 37.3333H37.3334C36.6802 37.3334 36.0498 37.5732 35.5617 38.0072C35.0736 38.4412 34.7618 39.0393 34.6854 39.688L34.6667 40V50.6666H42.6667V40C42.6666 39.3468 42.4268 38.7164 41.9928 38.2283C41.5588 37.7402 40.9607 37.4284 40.312 37.352L40 37.3333ZM21.3334 18.9413L16 20.1733V50.6666H21.3334V18.9413ZM34.6667 15.864L26.6667 17.712V26.6666H34.6667V15.864Z" fill="#0042E6"/>
</svg>
