<svg width="64" height="64" viewBox="0 0 64 64" fill="none" xmlns="http://www.w3.org/2000/svg">
<path d="M32.5 7C18.4168 7 7 18.4168 7 32.5C7 46.584 18.4168 58 32.5 58C46.584 58 58 46.584 58 32.5C58 18.4168 46.584 7 32.5 7ZM32.5 54.8627C20.197 54.8627 10.1875 44.803 10.1875 32.4999C10.1875 20.1969 20.197 10.1874 32.5 10.1874C44.803 10.1874 54.8125 20.197 54.8125 32.4999C54.8125 44.8028 44.803 54.8627 32.5 54.8627ZM42.6769 23.1694L27.7155 38.2247L20.9779 31.4872C20.3556 30.8648 19.3467 30.8648 18.7236 31.4872C18.1012 32.1095 18.1012 33.1184 18.7236 33.7407L26.6118 41.6298C27.2342 42.2514 28.243 42.2514 28.8662 41.6298C28.9379 41.5581 28.9993 41.4799 29.0551 41.3987L44.932 25.4237C45.5536 24.8013 45.5536 23.7925 44.932 23.1694C44.3089 22.547 43.3 22.547 42.6769 23.1694Z" fill="#0042E6"/>
</svg>
