<svg width="64" height="64" viewBox="0 0 64 64" fill="none" xmlns="http://www.w3.org/2000/svg">
<path fill-rule="evenodd" clip-rule="evenodd" d="M32 58.6666C20.6853 58.6666 15.0293 58.6666 11.5147 54.7599C8 50.8586 8 44.5706 8 31.9999C8 19.4293 8 13.1439 11.5147 9.23725C15.0293 5.33059 20.688 5.33325 32 5.33325C43.312 5.33325 48.9707 5.33325 52.4853 9.23725C56 13.1466 56 19.4293 56 31.9999C56 44.5706 56 50.8559 52.4853 54.7599C48.9707 58.6639 43.312 58.6666 32 58.6666ZM40 15.9999H24C22.76 15.9999 22.1413 15.9999 21.632 16.1359C20.9543 16.3178 20.3364 16.6747 19.8402 17.1708C19.3441 17.667 18.9872 18.2849 18.8053 18.9626C18.6667 19.4773 18.6667 20.0959 18.6667 21.3333C18.6667 22.5706 18.6667 23.1919 18.8027 23.7012C18.9845 24.3789 19.3414 24.9969 19.8376 25.493C20.3337 25.9892 20.9516 26.3461 21.6293 26.5279C22.144 26.6666 22.7627 26.6666 24 26.6666H40C41.24 26.6666 41.8587 26.6666 42.368 26.5306C43.0457 26.3487 43.6636 25.9918 44.1598 25.4957C44.6559 24.9995 45.0128 24.3816 45.1947 23.7039C45.3333 23.1893 45.3333 22.5706 45.3333 21.3333C45.3333 20.0959 45.3333 19.4746 45.1973 18.9653C45.0155 18.2876 44.6586 17.6696 44.1624 17.1735C43.6663 16.6773 43.0484 16.3204 42.3707 16.1386C41.8587 15.9999 41.2373 15.9999 40 15.9999ZM24 34.6666C24 35.3738 23.719 36.0521 23.219 36.5522C22.7189 37.0523 22.0406 37.3333 21.3333 37.3333C20.6261 37.3333 19.9478 37.0523 19.4477 36.5522C18.9476 36.0521 18.6667 35.3738 18.6667 34.6666C18.6667 33.9593 18.9476 33.2811 19.4477 32.781C19.9478 32.2809 20.6261 31.9999 21.3333 31.9999C22.0406 31.9999 22.7189 32.2809 23.219 32.781C23.719 33.2811 24 33.9593 24 34.6666ZM32 37.3333C32.7072 37.3333 33.3855 37.0523 33.8856 36.5522C34.3857 36.0521 34.6667 35.3738 34.6667 34.6666C34.6667 33.9593 34.3857 33.2811 33.8856 32.781C33.3855 32.2809 32.7072 31.9999 32 31.9999C31.2928 31.9999 30.6145 32.2809 30.1144 32.781C29.6143 33.2811 29.3333 33.9593 29.3333 34.6666C29.3333 35.3738 29.6143 36.0521 30.1144 36.5522C30.6145 37.0523 31.2928 37.3333 32 37.3333ZM45.3333 34.6666C45.3333 35.3738 45.0524 36.0521 44.5523 36.5522C44.0522 37.0523 43.3739 37.3333 42.6667 37.3333C41.9594 37.3333 41.2811 37.0523 40.7811 36.5522C40.281 36.0521 40 35.3738 40 34.6666C40 33.9593 40.281 33.2811 40.7811 32.781C41.2811 32.2809 41.9594 31.9999 42.6667 31.9999C43.3739 31.9999 44.0522 32.2809 44.5523 32.781C45.0524 33.2811 45.3333 33.9593 45.3333 34.6666ZM42.6667 47.9999C43.3739 47.9999 44.0522 47.719 44.5523 47.2189C45.0524 46.7188 45.3333 46.0405 45.3333 45.3332C45.3333 44.626 45.0524 43.9477 44.5523 43.4476C44.0522 42.9475 43.3739 42.6666 42.6667 42.6666C41.9594 42.6666 41.2811 42.9475 40.7811 43.4476C40.281 43.9477 40 44.626 40 45.3332C40 46.0405 40.281 46.7188 40.7811 47.2189C41.2811 47.719 41.9594 47.9999 42.6667 47.9999ZM34.6667 45.3332C34.6667 46.0405 34.3857 46.7188 33.8856 47.2189C33.3855 47.719 32.7072 47.9999 32 47.9999C31.2928 47.9999 30.6145 47.719 30.1144 47.2189C29.6143 46.7188 29.3333 46.0405 29.3333 45.3332C29.3333 44.626 29.6143 43.9477 30.1144 43.4476C30.6145 42.9475 31.2928 42.6666 32 42.6666C32.7072 42.6666 33.3855 42.9475 33.8856 43.4476C34.3857 43.9477 34.6667 44.626 34.6667 45.3332ZM21.3333 47.9999C22.0406 47.9999 22.7189 47.719 23.219 47.2189C23.719 46.7188 24 46.0405 24 45.3332C24 44.626 23.719 43.9477 23.219 43.4476C22.7189 42.9475 22.0406 42.6666 21.3333 42.6666C20.6261 42.6666 19.9478 42.9475 19.4477 43.4476C18.9476 43.9477 18.6667 44.626 18.6667 45.3332C18.6667 46.0405 18.9476 46.7188 19.4477 47.2189C19.9478 47.719 20.6261 47.9999 21.3333 47.9999Z" fill="#0042E6"/>
</svg>
